<svg xmlns="http://www.w3.org/2000/svg" viewBox="0 0 300 400" width="300" height="400">
  <defs>
    <linearGradient id="wash" x1="0" y1="0" x2="1" y2="0.3">
      <stop offset="0" stop-color="#E9C9C3"/>
      <stop offset="0.55" stop-color="#D9AFB0"/>
      <stop offset="1" stop-color="#A88596"/>
    </linearGradient>
    <radialGradient id="light" cx="0.38" cy="0.32" r="0.7">
      <stop offset="0" stop-color="#FFFFFF" stop-opacity="0.55"/>
      <stop offset="1" stop-color="#FFFFFF" stop-opacity="0"/>
    </radialGradient>
    <linearGradient id="wood" x1="0" y1="0" x2="1" y2="0">
      <stop offset="0" stop-color="#8A6E5C"/>
      <stop offset="1" stop-color="#5E4A3E"/>
    </linearGradient>
    <filter id="bleed" x="-10%" y="-10%" width="120%" height="120%">
      <feTurbulence type="fractalNoise" baseFrequency="0.035" numOctaves="3" seed="4" result="n"/>
      <feDisplacementMap in="SourceGraphic" in2="n" scale="5" xChannelSelector="R" yChannelSelector="G"/>
    </filter>
    <filter id="pencil" x="-10%" y="-10%" width="120%" height="120%">
      <feTurbulence type="fractalNoise" baseFrequency="0.06" numOctaves="2" seed="7" result="g"/>
      <feDisplacementMap in="SourceGraphic" in2="g" scale="1.8" xChannelSelector="R" yChannelSelector="G"/>
    </filter>
    <filter id="grain">
      <feTurbulence type="fractalNoise" baseFrequency="0.8" numOctaves="2" seed="11"/>
      <feColorMatrix values="0 0 0 0 0.45  0 0 0 0 0.38  0 0 0 0 0.30  0 0 0 0.07 0"/>
    </filter>
    <clipPath id="body"><path d="M 137.0 74.0 C 132.6 76.2 118.8 82.3 110.3 87.0 C 101.8 91.7 89.1 92.5 86.0 102.0 C 82.9 111.5 89.3 128.0 92.0 144.0 C 94.7 160.0 101.3 180.3 102.0 198.0 C 102.7 215.7 95.7 236.3 96.0 250.0 C 96.3 263.7 102.7 275.0 104.0 280.0 Q 150.0 294.0 196.0 280.0 C 197.3 275.0 203.7 263.7 204.0 250.0 C 204.3 236.3 197.3 215.7 198.0 198.0 C 198.7 180.3 205.3 160.0 208.0 144.0 C 210.7 128.0 217.1 111.5 214.0 102.0 C 210.9 92.5 198.2 91.7 189.7 87.0 C 181.2 82.3 167.4 76.2 163.0 74.0 Q 150.0 78.0 137.0 74.0 Z"/></clipPath>
  </defs>
  <rect width="300" height="400" fill="#FFF9E0"/>
  <ellipse cx="150" cy="368" rx="54" ry="6" fill="#6B5A50" opacity="0.10"/>
  <g filter="url(#pencil)" stroke="#5A4A40" stroke-linecap="round" fill="none">
    <path d="M 150 286 L 150 352" stroke="#6A5446" stroke-width="4.5"/>
    <path d="M 150 350 Q 128 356 104 366 M 150 350 Q 172 356 196 366 M 150 350 L 150 370" stroke="#6A5446" stroke-width="3"/>
    <circle cx="104" cy="366" r="2.4" fill="#6A5446" stroke="none"/>
    <circle cx="196" cy="366" r="2.4" fill="#6A5446" stroke="none"/>
    <circle cx="150" cy="370" r="2.4" fill="#6A5446" stroke="none"/>
  </g>
  <g filter="url(#bleed)">
    <path d="M 137.0 74.0 C 132.6 76.2 118.8 82.3 110.3 87.0 C 101.8 91.7 89.1 92.5 86.0 102.0 C 82.9 111.5 89.3 128.0 92.0 144.0 C 94.7 160.0 101.3 180.3 102.0 198.0 C 102.7 215.7 95.7 236.3 96.0 250.0 C 96.3 263.7 102.7 275.0 104.0 280.0 Q 150.0 294.0 196.0 280.0 C 197.3 275.0 203.7 263.7 204.0 250.0 C 204.3 236.3 197.3 215.7 198.0 198.0 C 198.7 180.3 205.3 160.0 208.0 144.0 C 210.7 128.0 217.1 111.5 214.0 102.0 C 210.9 92.5 198.2 91.7 189.7 87.0 C 181.2 82.3 167.4 76.2 163.0 74.0 Q 150.0 78.0 137.0 74.0 Z" fill="url(#wash)" opacity="0.92"/>
    <path d="M 137.0 74.0 C 132.6 76.2 118.8 82.3 110.3 87.0 C 101.8 91.7 89.1 92.5 86.0 102.0 C 82.9 111.5 89.3 128.0 92.0 144.0 C 94.7 160.0 101.3 180.3 102.0 198.0 C 102.7 215.7 95.7 236.3 96.0 250.0 C 96.3 263.7 102.7 275.0 104.0 280.0 Q 150.0 294.0 196.0 280.0 C 197.3 275.0 203.7 263.7 204.0 250.0 C 204.3 236.3 197.3 215.7 198.0 198.0 C 198.7 180.3 205.3 160.0 208.0 144.0 C 210.7 128.0 217.1 111.5 214.0 102.0 C 210.9 92.5 198.2 91.7 189.7 87.0 C 181.2 82.3 167.4 76.2 163.0 74.0 Q 150.0 78.0 137.0 74.0 Z" fill="url(#light)"/>
  </g>
  <g clip-path="url(#body)" filter="url(#pencil)" fill="none" stroke-linecap="round">
    <path d="M 123.1 92.0 C 123.0 100.7 121.0 126.3 122.2 144.0 C 123.3 161.7 129.3 180.3 129.8 198.0 C 130.3 215.7 125.9 235.3 125.2 250.0 C 124.4 264.7 125.2 280.0 125.2 286.0" stroke="#7A5E64" stroke-width="1" opacity="0.55"/>
    <path d="M 176.9 92.0 C 177.0 100.7 179.0 126.3 177.8 144.0 C 176.7 161.7 170.7 180.3 170.2 198.0 C 169.7 215.7 174.1 235.3 174.8 250.0 C 175.6 264.7 174.8 280.0 174.8 286.0" stroke="#7A5E64" stroke-width="1" opacity="0.55"/>
    <path d="M 150 80 L 150 288" stroke="#7A5E64" stroke-width="0.8" opacity="0.4" stroke-dasharray="2 3"/>
    <path d="M 98 198 Q 150 205 202 198" stroke="#675469" stroke-width="2.6" opacity="0.9"/>
  </g>
  <g filter="url(#pencil)" fill="none" stroke="#4E4038" stroke-width="1.5" stroke-linejoin="round" stroke-linecap="round">
    <path d="M 137.0 74.0 C 132.6 76.2 118.8 82.3 110.3 87.0 C 101.8 91.7 89.1 92.5 86.0 102.0 C 82.9 111.5 89.3 128.0 92.0 144.0 C 94.7 160.0 101.3 180.3 102.0 198.0 C 102.7 215.7 95.7 236.3 96.0 250.0 C 96.3 263.7 102.7 275.0 104.0 280.0 Q 150.0 294.0 196.0 280.0 C 197.3 275.0 203.7 263.7 204.0 250.0 C 204.3 236.3 197.3 215.7 198.0 198.0 C 198.7 180.3 205.3 160.0 208.0 144.0 C 210.7 128.0 217.1 111.5 214.0 102.0 C 210.9 92.5 198.2 91.7 189.7 87.0 C 181.2 82.3 167.4 76.2 163.0 74.0 Q 150.0 78.0 137.0 74.0 Z" opacity="0.85"/>
    <path d="M 137 75 L 138 52 M 163 75 L 162 52" opacity="0.85"/>
  </g>
  <g filter="url(#bleed)">
    <path d="M 138 52 L 162 52 L 163 75 Q 150 78 137 75 Z" fill="#D9AFB0" opacity="0.85"/>
    <ellipse cx="150" cy="52" rx="15" ry="4.5" fill="#8A6E5C"/>
  </g>
  <g filter="url(#pencil)" stroke="#4E4038" stroke-width="1.4" fill="none">
    <ellipse cx="150" cy="52" rx="15" ry="4.5"/>
    <path d="M 150 47.5 L 150 40"/>
  </g>
  <circle cx="150" cy="38" r="4" fill="#5E4A3E"/>
  <rect width="300" height="400" filter="url(#grain)"/>
</svg>
