<svg xmlns="http://www.w3.org/2000/svg" viewBox="0 0 300 400" width="300" height="400">
  <defs>
    <linearGradient id="wash" x1="0" y1="0" x2="1" y2="0.3">
      <stop offset="0" stop-color="#E9C9C3"/>
      <stop offset="0.55" stop-color="#D9AFB0"/>
      <stop offset="1" stop-color="#A88596"/>
    </linearGradient>
    <radialGradient id="light" cx="0.38" cy="0.32" r="0.7">
      <stop offset="0" stop-color="#FFFFFF" stop-opacity="0.55"/>
      <stop offset="1" stop-color="#FFFFFF" stop-opacity="0"/>
    </radialGradient>
    <linearGradient id="wood" x1="0" y1="0" x2="1" y2="0">
      <stop offset="0" stop-color="#8A6E5C"/>
      <stop offset="1" stop-color="#5E4A3E"/>
    </linearGradient>
    <filter id="bleed" x="-10%" y="-10%" width="120%" height="120%">
      <feTurbulence type="fractalNoise" baseFrequency="0.035" numOctaves="3" seed="4" result="n"/>
      <feDisplacementMap in="SourceGraphic" in2="n" scale="5" xChannelSelector="R" yChannelSelector="G"/>
    </filter>
    <filter id="pencil" x="-10%" y="-10%" width="120%" height="120%">
      <feTurbulence type="fractalNoise" baseFrequency="0.06" numOctaves="2" seed="7" result="g"/>
      <feDisplacementMap in="SourceGraphic" in2="g" scale="1.8" xChannelSelector="R" yChannelSelector="G"/>
    </filter>
    <filter id="grain">
      <feTurbulence type="fractalNoise" baseFrequency="0.8" numOctaves="2" seed="11"/>
      <feColorMatrix values="0 0 0 0 0.45  0 0 0 0 0.38  0 0 0 0 0.30  0 0 0 0.07 0"/>
    </filter>
    <clipPath id="body"><path d="M 137.0 74.0 C 133.7 76.2 123.8 82.3 117.1 87.0 C 110.5 91.7 100.2 92.5 97.0 102.0 C 93.8 111.5 97.3 128.0 98.0 144.0 C 98.7 160.0 101.2 180.3 101.0 198.0 C 100.8 215.7 96.3 236.3 97.0 250.0 C 97.7 263.7 103.7 275.0 105.0 280.0 Q 150.0 294.0 195.0 280.0 C 196.3 275.0 202.3 263.7 203.0 250.0 C 203.7 236.3 199.2 215.7 199.0 198.0 C 198.8 180.3 201.3 160.0 202.0 144.0 C 202.7 128.0 206.2 111.5 203.0 102.0 C 199.8 92.5 189.5 91.7 182.9 87.0 C 176.2 82.3 166.3 76.2 163.0 74.0 Q 150.0 78.0 137.0 74.0 Z"/></clipPath>
  </defs>
  <rect width="300" height="400" fill="#FFF9E0"/>
  <ellipse cx="150" cy="368" rx="54" ry="6" fill="#6B5A50" opacity="0.10"/>
  <g filter="url(#pencil)" stroke="#5A4A40" stroke-linecap="round" fill="none">
    <path d="M 150 286 L 150 352" stroke="#6A5446" stroke-width="4.5"/>
    <path d="M 150 350 Q 128 356 104 366 M 150 350 Q 172 356 196 366 M 150 350 L 150 370" stroke="#6A5446" stroke-width="3"/>
    <circle cx="104" cy="366" r="2.4" fill="#6A5446" stroke="none"/>
    <circle cx="196" cy="366" r="2.4" fill="#6A5446" stroke="none"/>
    <circle cx="150" cy="370" r="2.4" fill="#6A5446" stroke="none"/>
  </g>
  <g filter="url(#bleed)">
    <path d="M 137.0 74.0 C 133.7 76.2 123.8 82.3 117.1 87.0 C 110.5 91.7 100.2 92.5 97.0 102.0 C 93.8 111.5 97.3 128.0 98.0 144.0 C 98.7 160.0 101.2 180.3 101.0 198.0 C 100.8 215.7 96.3 236.3 97.0 250.0 C 97.7 263.7 103.7 275.0 105.0 280.0 Q 150.0 294.0 195.0 280.0 C 196.3 275.0 202.3 263.7 203.0 250.0 C 203.7 236.3 199.2 215.7 199.0 198.0 C 198.8 180.3 201.3 160.0 202.0 144.0 C 202.7 128.0 206.2 111.5 203.0 102.0 C 199.8 92.5 189.5 91.7 182.9 87.0 C 176.2 82.3 166.3 76.2 163.0 74.0 Q 150.0 78.0 137.0 74.0 Z" fill="url(#wash)" opacity="0.92"/>
    <path d="M 137.0 74.0 C 133.7 76.2 123.8 82.3 117.1 87.0 C 110.5 91.7 100.2 92.5 97.0 102.0 C 93.8 111.5 97.3 128.0 98.0 144.0 C 98.7 160.0 101.2 180.3 101.0 198.0 C 100.8 215.7 96.3 236.3 97.0 250.0 C 97.7 263.7 103.7 275.0 105.0 280.0 Q 150.0 294.0 195.0 280.0 C 196.3 275.0 202.3 263.7 203.0 250.0 C 203.7 236.3 199.2 215.7 199.0 198.0 C 198.8 180.3 201.3 160.0 202.0 144.0 C 202.7 128.0 206.2 111.5 203.0 102.0 C 199.8 92.5 189.5 91.7 182.9 87.0 C 176.2 82.3 166.3 76.2 163.0 74.0 Q 150.0 78.0 137.0 74.0 Z" fill="url(#light)"/>
  </g>
  <g clip-path="url(#body)" filter="url(#pencil)" fill="none" stroke-linecap="round">
    <path d="M 127.7 92.0 C 127.3 100.7 124.8 126.3 125.0 144.0 C 125.3 161.7 129.3 180.3 129.4 198.0 C 129.5 215.7 126.3 235.3 125.6 250.0 C 125.0 264.7 125.6 280.0 125.6 286.0" stroke="#7A5E64" stroke-width="1" opacity="0.55"/>
    <path d="M 172.3 92.0 C 172.7 100.7 175.2 126.3 175.0 144.0 C 174.7 161.7 170.7 180.3 170.6 198.0 C 170.5 215.7 173.7 235.3 174.4 250.0 C 175.0 264.7 174.4 280.0 174.4 286.0" stroke="#7A5E64" stroke-width="1" opacity="0.55"/>
    <path d="M 150 80 L 150 288" stroke="#7A5E64" stroke-width="0.8" opacity="0.4" stroke-dasharray="2 3"/>
    <path d="M 97 198 Q 150 205 203 198" stroke="#675469" stroke-width="2.6" opacity="0.9"/>
  </g>
  <g filter="url(#pencil)" fill="none" stroke="#4E4038" stroke-width="1.5" stroke-linejoin="round" stroke-linecap="round">
    <path d="M 137.0 74.0 C 133.7 76.2 123.8 82.3 117.1 87.0 C 110.5 91.7 100.2 92.5 97.0 102.0 C 93.8 111.5 97.3 128.0 98.0 144.0 C 98.7 160.0 101.2 180.3 101.0 198.0 C 100.8 215.7 96.3 236.3 97.0 250.0 C 97.7 263.7 103.7 275.0 105.0 280.0 Q 150.0 294.0 195.0 280.0 C 196.3 275.0 202.3 263.7 203.0 250.0 C 203.7 236.3 199.2 215.7 199.0 198.0 C 198.8 180.3 201.3 160.0 202.0 144.0 C 202.7 128.0 206.2 111.5 203.0 102.0 C 199.8 92.5 189.5 91.7 182.9 87.0 C 176.2 82.3 166.3 76.2 163.0 74.0 Q 150.0 78.0 137.0 74.0 Z" opacity="0.85"/>
    <path d="M 137 75 L 138 52 M 163 75 L 162 52" opacity="0.85"/>
  </g>
  <g filter="url(#bleed)">
    <path d="M 138 52 L 162 52 L 163 75 Q 150 78 137 75 Z" fill="#D9AFB0" opacity="0.85"/>
    <ellipse cx="150" cy="52" rx="15" ry="4.5" fill="#8A6E5C"/>
  </g>
  <g filter="url(#pencil)" stroke="#4E4038" stroke-width="1.4" fill="none">
    <ellipse cx="150" cy="52" rx="15" ry="4.5"/>
    <path d="M 150 47.5 L 150 40"/>
  </g>
  <circle cx="150" cy="38" r="4" fill="#5E4A3E"/>
  <rect width="300" height="400" filter="url(#grain)"/>
</svg>
